<?xml version="1.0"?>
<svg xmlns="http://www.w3.org/2000/svg" xmlns:xlink="http://www.w3.org/1999/xlink" xmlns:svgjs="http://svgjs.com/svgjs" version="1.1" width="512" height="512" x="0" y="0" viewBox="0 0 512 512" style="enable-background:new 0 0 512 512" xml:space="preserve" class=""><g><path xmlns="http://www.w3.org/2000/svg" d="m368.734375 63.265625c-40.796875-40.796875-95.039063-63.265625-152.734375-63.265625s-111.9375 22.46875-152.734375 63.265625-63.265625 95.039063-63.265625 152.734375 22.46875 111.9375 63.265625 152.734375 95.039063 63.265625 152.734375 63.265625 111.9375-22.46875 152.734375-63.265625 63.265625-95.039063 63.265625-152.734375-22.46875-111.9375-63.265625-152.734375zm-137.734375 338.128906v-14.394531c0-8.285156-6.714844-15-15-15s-15 6.714844-15 15v14.394531c-90.621094-7.265625-163.128906-79.773437-170.394531-170.394531h14.394531c8.285156 0 15-6.714844 15-15s-6.714844-15-15-15h-14.394531c7.265625-90.621094 79.773437-163.128906 170.394531-170.394531v14.394531c0 8.285156 6.714844 15 15 15s15-6.714844 15-15v-14.394531c90.621094 7.269531 163.128906 79.773437 170.394531 170.394531h-14.394531c-8.285156 0-15 6.714844-15 15s6.714844 15 15 15h14.394531c-7.265625 90.621094-79.773437 163.128906-170.394531 170.394531zm0 0" fill="#727272" data-original="#000000" style="" class=""/><path xmlns="http://www.w3.org/2000/svg" d="m448.128906 32.304688h22.570313c8.28125 0 15-6.71875 15-15 0-8.285157-6.71875-15-15-15h-56c-8.285157 0-15 6.714843-15 15v56c0 8.28125 6.714843 15 15 15 8.28125 0 15-6.71875 15-15v-15.785157c33.945312 45.578125 52.300781 100.617188 52.300781 158.480469 0 71.050781-27.667969 137.851562-77.910156 188.089844-5.855469 5.859375-5.855469 15.355468 0 21.214844 2.929687 2.929687 6.769531 4.394531 10.605468 4.394531 3.839844 0 7.679688-1.464844 10.609376-4.394531 55.90625-55.910157 86.695312-130.242188 86.695312-209.304688 0-67.53125-22.480469-131.601562-63.871094-183.695312zm0 0" fill="#727272" data-original="#000000" style="" class=""/><path xmlns="http://www.w3.org/2000/svg" d="m342.152344 140.621094-94.066406 43.867187c-8.171876-8.316406-19.535157-13.488281-32.085938-13.488281s-23.914062 5.171875-32.085938 13.488281l-47.355468-22.082031c-7.507813-3.503906-16.429688-.253906-19.933594 7.253906-3.5 7.507813-.253906 16.433594 7.257812 19.933594l47.332032 22.070312c-.140625 1.429688-.214844 2.875-.214844 4.335938 0 24.8125 20.1875 45 45 45s45-20.1875 45-45c0-1.460938-.074219-2.90625-.214844-4.335938l94.046875-43.851562c7.507813-3.5 10.757813-12.425781 7.257813-19.933594-3.503906-7.511718-12.429688-10.761718-19.9375-7.257812zm-126.152344 90.378906c-8.269531 0-15-6.730469-15-15s6.730469-15 15-15 15 6.730469 15 15-6.730469 15-15 15zm0 0" fill="#727272" data-original="#000000" style="" class=""/></g></svg>
