<?xml version="1.0"?>
<svg xmlns="http://www.w3.org/2000/svg" xmlns:xlink="http://www.w3.org/1999/xlink" xmlns:svgjs="http://svgjs.com/svgjs" version="1.1" width="512" height="512" x="0" y="0" viewBox="0 0 512 512" style="enable-background:new 0 0 512 512" xml:space="preserve" class=""><g><path xmlns="http://www.w3.org/2000/svg" d="m1.655 218.199c-3.358-8.106-1.502-17.436 4.701-23.64l98.699-98.699c8.475-8.475 22.208-8.475 30.682 0 8.472 8.47 8.472 22.208 0 30.678l-61.665 61.665h416.233c11.981 0 21.695 9.712 21.695 21.695s-9.714 21.695-21.695 21.695h-468.608c-8.775 0-16.684-5.288-20.042-13.394zm488.648 62.208h-468.608c-11.981 0-21.695 9.712-21.695 21.695s9.714 21.695 21.695 21.695h416.233l-61.667 61.665c-8.47 8.47-8.472 22.208 0 30.678 4.237 4.237 9.788 6.356 15.341 6.356 5.551 0 11.104-2.119 15.341-6.356l98.701-98.699c6.203-6.203 8.059-15.534 4.701-23.64s-11.267-13.394-20.042-13.394z" fill="#727272" data-original="#000000" style="" class=""/></g></svg>
